<svg width="500" height="684" viewBox="0 0 500 684" fill="none" xmlns="http://www.w3.org/2000/svg">
<path fill-rule="evenodd" clip-rule="evenodd" d="M0.00169592 313.773C0.00036259 371.73 -0.0016365 492.8 0.0023635 573.96C0.00669683 663.703 138.792 684 250.003 684C361.213 684 500 663.703 500 573.96V313.773C500 295.363 485.077 280.523 466.667 280.523H33.3347C14.9257 280.523 0.00202926 295.363 0.00169592 313.773ZM200 467.427C200 483.293 206.897 497.55 217.857 507.36V559.097C217.857 577.503 232.78 592.43 251.19 592.43H255.953C274.363 592.43 289.287 577.503 289.287 559.097V507.36C300.247 497.55 307.143 483.293 307.143 467.427C307.143 437.84 283.16 413.857 253.573 413.857C223.983 413.857 200 437.84 200 467.427Z" fill="black"/>
<path d="M122.723 290.757C122.723 290.757 122.724 205.171 122.723 153.82C122.721 92.1903 173.622 34 249.995 34C326.368 34 377.265 92.1903 377.265 153.82" stroke="black" stroke-width="66.6667" stroke-linecap="round" stroke-linejoin="round"/>
</svg>
